<?xml version="1.0" standalone="no"?>
<!DOCTYPE svg PUBLIC "-//W3C//DTD SVG 20010904//EN"
 "http://www.w3.org/TR/2001/REC-SVG-20010904/DTD/svg10.dtd">
<svg version="1.0" xmlns="http://www.w3.org/2000/svg"
 width="450.000000pt" height="450.000000pt" viewBox="0 0 450.000000 450.000000"
 preserveAspectRatio="xMidYMid meet">
<metadata>
Created by potrace 1.11, written by Peter Selinger 2001-2013
</metadata>
<g transform="translate(0.000000,450.000000) scale(0.100000,-0.100000)"
fill="#000000" stroke="none">
<path d="M880 3086 l0 -54 48 -6 c140 -20 215 -64 259 -154 l28 -57 3 -630 c3
-752 -2 -824 -71 -902 -40 -46 -88 -67 -200 -89 l-87 -17 0 -54 0 -53 450 0
450 0 0 54 c0 53 -1 55 -32 61 -166 36 -249 86 -287 174 -37 87 -42 200 -39
905 l3 668 297 -813 c164 -448 313 -859 332 -914 l35 -100 92 0 93 0 350 903
351 902 3 -790 c2 -666 0 -796 -12 -825 -23 -55 -76 -82 -199 -101 l-107 -17
0 -53 0 -54 570 0 570 0 0 54 0 54 -93 16 c-110 20 -165 48 -189 96 -17 32
-18 92 -18 812 0 844 -1 836 55 872 26 17 117 41 193 51 l52 7 0 54 0 54 -469
0 -468 0 -7 -38 c-14 -90 -67 -240 -266 -753 -117 -299 -215 -547 -219 -552
-4 -4 -120 296 -257 668 l-249 675 -482 0 -483 0 0 -54z"/>
</g>
</svg>
